<svg xmlns="http://www.w3.org/2000/svg" height="227" width="960.0" font-size="16" font-family="sans-serif" stroke-width="2">
<g transform="translate(10.0 0)">
<g fill="hsl(0, 100%, 40%)">
<text y="22">Inversion.Data.Mod</text>
<text y="22" x="283.118455709073" text-anchor="end">353 ms</text>
</g>
<g>
<title>353 ms ±  47 ms</title>
<rect y="28" rx="5" height="22" width="283.118455709073" fill="hsl(0, 100%, 80%)" stroke="hsl(0, 100%, 55%)" />
<g stroke="hsl(0, 100%, 40%)"><line x1="245.25631736668015" x2="320.9805940514658" y1="39" y2="39" />
<line x1="245.25631736668015" x2="245.25631736668015" y1="33" y2="45" />
<line x1="320.9805940514658" x2="320.9805940514658" y1="33" y2="45" />
</g>
</g>
<text fill="hsl(90, 100%, 40%)" y="77">Inversion.Data.Mod.Word 294 ms</text>
<g>
<title>294 ms ±  43 ms</title>
<rect y="83" rx="5" height="22" width="235.65287325623" fill="hsl(90, 100%, 80%)" stroke="hsl(90, 100%, 55%)" />
<g stroke="hsl(90, 100%, 40%)"><line x1="201.23554942411812" x2="270.0701970883419" y1="94" y2="94" />
<line x1="201.23554942411812" x2="201.23554942411812" y1="88" y2="100" />
<line x1="270.0701970883419" x2="270.0701970883419" y1="88" y2="100" />
</g>
</g>
<g fill="hsl(180, 100%, 40%)">
<text y="132">Inversion.finite-field</text>
<text y="132" x="821.8298170179202" text-anchor="end">1.03 s</text>
</g>
<g>
<title>1.03 s ± 147 ms</title>
<rect y="138" rx="5" height="22" width="821.8298170179202" fill="hsl(180, 100%, 80%)" stroke="hsl(180, 100%, 55%)" />
<g stroke="hsl(180, 100%, 40%)"><line x1="703.6596340358403" x2="940.0" y1="149" y2="149" />
<line x1="703.6596340358403" x2="703.6596340358403" y1="143" y2="155" />
<line x1="940.0" x2="940.0" y1="143" y2="155" />
</g>
</g>
<g fill="hsl(270, 100%, 40%)">
<text y="187">Inversion.modular-arithmetic</text>
<text y="187" x="717.8860415010972" text-anchor="end">896 ms</text>
</g>
<g>
<title>896 ms ±  58 ms</title>
<rect y="193" rx="5" height="22" width="717.8860415010972" fill="hsl(270, 100%, 80%)" stroke="hsl(270, 100%, 55%)" />
<g stroke="hsl(270, 100%, 40%)"><line x1="671.4753013587209" x2="764.2967816434735" y1="204" y2="204" />
<line x1="671.4753013587209" x2="671.4753013587209" y1="198" y2="210" />
<line x1="764.2967816434735" x2="764.2967816434735" y1="198" y2="210" />
</g>
</g>
</g>
</svg>
